<?xml version="1.0" encoding="utf-8"?>
<!-- Generator: Adobe Illustrator 17.1.0, SVG Export Plug-In . SVG Version: 6.00 Build 0)  -->
<!DOCTYPE svg PUBLIC "-//W3C//DTD SVG 1.1//EN" "http://www.w3.org/Graphics/SVG/1.1/DTD/svg11.dtd">
<svg version="1.1" id="Layer_1" xmlns:sketch="http://www.bohemiancoding.com/sketch/ns"
	 xmlns="http://www.w3.org/2000/svg" xmlns:xlink="http://www.w3.org/1999/xlink" x="0px" y="0px" viewBox="0 0 32 128"
	 enable-background="new 0 0 32 128" xml:space="preserve">
<g>
	<circle fill="#4E5D78" cx="8.3" cy="11.5" r="2.2"/>
	<path fill="#4E5D78" d="M16.1,21c0.4-1.6,0.8-3.5,2.1-4.6L15,11.9l-3.4,5.2l-2.1-2.8l-5,6.7H16.1z"/>
	<path fill="#4E5D78" d="M4.9,23.2c-0.7,0-1.2-0.5-1.2-1.2V8.3c0-0.7,0.5-1.2,1.2-1.2h18.3c0.7,0,1.2,0.5,1.2,1.2v5.1
		c0.8,0,1.7,0.1,2.4,0.5V8.3c0-2.1-1.6-3.6-3.6-3.6H4.9c-2.1,0-3.6,1.6-3.6,3.6v13.8c0,2.1,1.6,3.6,3.6,3.6h13.9
		c-0.6-0.7-1.1-1.6-1.5-2.4H4.9V23.2z"/>
	<path fill="#4E5D78" d="M24.6,14.8c-3.4,0-6.2,2.8-6.2,6.2s2.8,6.2,6.2,6.2c3.4,0,6.2-2.8,6.2-6.2S28,14.8,24.6,14.8z M28.5,21.6
		h-3.4V25h-1.2v-3.4h-3.3v-1.2H24V17h1.2v3.4h3.4v1.2H28.5z"/>
</g>
<g>
	<circle fill="#020202" cx="8.3" cy="43.4" r="2.2"/>
	<path fill="#020202" d="M16.1,53c0.4-1.6,0.8-3.5,2.1-4.6l-3.3-4.6L11.5,49l-2.1-2.8l-5,6.7h11.6V53z"/>
	<path fill="#020202" d="M4.9,55.2c-0.7,0-1.2-0.5-1.2-1.2V40.2c0-0.7,0.5-1.2,1.2-1.2h18.3c0.7,0,1.2,0.5,1.2,1.2v5.1
		c0.8,0,1.7,0.1,2.4,0.5v-5.6c0-2.1-1.6-3.6-3.6-3.6H4.9c-2.1,0-3.6,1.6-3.6,3.6V54c0,2.1,1.6,3.6,3.6,3.6h13.9
		c-0.6-0.7-1.1-1.6-1.5-2.4L4.9,55.2L4.9,55.2z"/>
	<path fill="#020202" d="M24.6,46.7c-3.4,0-6.2,2.8-6.2,6.2s2.8,6.2,6.2,6.2c3.4,0,6.2-2.8,6.2-6.2S28,46.7,24.6,46.7z M28.5,53.5
		h-3.4v3.4h-1.2v-3.4h-3.3v-1.2H24V49h1.2v3.4h3.4v1.1H28.5z"/>
</g>
<g>
	<circle fill="#009BE7" cx="8.3" cy="75.3" r="2.2"/>
	<path fill="#009BE7" d="M16.1,84.9c0.4-1.6,0.8-3.5,2.1-4.6l-3.3-4.6l-3.4,5.2l-2.1-2.8l-5,6.7h11.6V84.9z"/>
	<path fill="#009BE7" d="M4.9,87c-0.7,0-1.2-0.5-1.2-1.2V72c0-0.7,0.5-1.2,1.2-1.2h18.3c0.7,0,1.2,0.5,1.2,1.2v5.1
		c0.8,0,1.7,0.1,2.4,0.5V72c0-2.1-1.6-3.6-3.6-3.6H4.9c-2.1,0-3.6,1.6-3.6,3.6v13.8c0,2.1,1.6,3.6,3.6,3.6h13.9
		c-0.6-0.7-1.1-1.6-1.5-2.4H4.9z"/>
	<path fill="#009BE7" d="M24.6,78.6c-3.4,0-6.2,2.8-6.2,6.2s2.8,6.2,6.2,6.2c3.4,0,6.2-2.8,6.2-6.2S28,78.6,24.6,78.6z M28.5,85.3
		h-3.4v3.4h-1.2v-3.4h-3.3v-1.2H24v-3.4h1.2v3.4h3.4v1.2H28.5z"/>
</g>
<g>
	<circle fill="#FFFFFF" cx="8.3" cy="107.2" r="2.2"/>
	<path fill="#FFFFFF" d="M16.1,116.7c0.4-1.6,0.8-3.5,2.1-4.6l-3.3-4.6l-3.4,5.2l-2.1-2.8l-5,6.7h11.6V116.7z"/>
	<path fill="#FFFFFF" d="M4.9,118.9c-0.7,0-1.2-0.5-1.2-1.2v-13.8c0-0.7,0.5-1.2,1.2-1.2h18.3c0.7,0,1.2,0.5,1.2,1.2v5.1
		c0.8,0,1.7,0.1,2.4,0.5v-5.6c0-2.1-1.6-3.6-3.6-3.6H4.9c-2.1,0-3.6,1.6-3.6,3.6v13.8c0,2.1,1.6,3.6,3.6,3.6h13.9
		c-0.6-0.7-1.1-1.6-1.5-2.4H4.9z"/>
	<path fill="#FFFFFF" d="M24.6,110.5c-3.4,0-6.2,2.8-6.2,6.2s2.8,6.2,6.2,6.2s6.2-2.8,6.2-6.2S28,110.5,24.6,110.5z M28.5,117.3
		h-3.4v3.4h-1.2v-3.4h-3.3v-1.2H24v-3.4h1.2v3.4h3.4v1.2H28.5z"/>
</g>
</svg>
