<?xml version="1.0" encoding="utf-8"?>
<!-- Generator: Adobe Illustrator 17.1.0, SVG Export Plug-In . SVG Version: 6.00 Build 0)  -->
<!DOCTYPE svg PUBLIC "-//W3C//DTD SVG 1.1//EN" "http://www.w3.org/Graphics/SVG/1.1/DTD/svg11.dtd">
<svg version="1.1" id="Layer_1" xmlns:sketch="http://www.bohemiancoding.com/sketch/ns"
	 xmlns="http://www.w3.org/2000/svg" xmlns:xlink="http://www.w3.org/1999/xlink" x="0px" y="0px" viewBox="0 0 32 128"
	 enable-background="new 0 0 32 128" xml:space="preserve">
<path fill="#4E5D78" d="M24.5,7.8C16.8,1.1,9.3,9.1,9.2,9.1L5.1,4.9v11.7h11.7l-3.8-3.8c2.3-2.4,4.6-2.8,6.2-2.6
	c2.2,0.3,4.1,1.8,4.8,4c1.9,5.4-1.6,13-1.6,13c1.5-1.2,2.7-3.3,3.3-4.3c0.2-0.3,0.3-0.6,0.4-1C29.5,12.1,24.5,7.8,24.5,7.8z"/>
<path d="M24.6,39.9c-7.6-6.8-15.2,1.3-15.3,1.3L5.1,37v11.7h11.7L13,45c2.3-2.4,4.6-2.8,6.2-2.6c2.2,0.3,4.1,1.8,4.8,4
	c1.9,5.4-1.6,13-1.6,13c1.5-1.2,2.7-3.3,3.3-4.3c0.2-0.3,0.3-0.6,0.4-1C29.6,44.2,24.6,39.9,24.6,39.9z"/>
<path fill="#009BE7" d="M24.6,71.8C16.9,65.1,9.3,73,9.3,73.1L5.1,69v11.7h11.7L13,76.9c2.3-2.4,4.6-2.8,6.2-2.6
	c2.2,0.3,4.1,1.8,4.8,4c1.9,5.4-1.6,13-1.6,13c1.5-1.2,2.7-3.3,3.3-4.3c0.2-0.3,0.3-0.6,0.4-1C29.6,76,24.6,71.8,24.6,71.8z"/>
<path fill="#FFFFFF" d="M24.6,103.9c-7.6-6.7-15.3,1.3-15.3,1.4l-4.2-4.2v11.7h11.7L13,109c2.3-2.4,4.6-2.8,6.2-2.6
	c2.2,0.3,4.1,1.8,4.8,4c1.9,5.4-1.6,13-1.6,13c1.5-1.2,2.7-3.3,3.3-4.3c0.2-0.3,0.3-0.6,0.4-1C29.6,108.2,24.6,103.9,24.6,103.9z"/>
</svg>
