<?xml version="1.0" encoding="utf-8"?>
<!-- Generator: Adobe Illustrator 17.1.0, SVG Export Plug-In . SVG Version: 6.00 Build 0)  -->
<!DOCTYPE svg PUBLIC "-//W3C//DTD SVG 1.1//EN" "http://www.w3.org/Graphics/SVG/1.1/DTD/svg11.dtd">
<svg version="1.1" id="Layer_1" xmlns:sketch="http://www.bohemiancoding.com/sketch/ns"
	 xmlns="http://www.w3.org/2000/svg" xmlns:xlink="http://www.w3.org/1999/xlink" x="0px" y="0px" viewBox="0 0 32 128"
	 enable-background="new 0 0 32 128" xml:space="preserve">
<g>
	<path fill="#4E5D78" d="M20.3,21.8c0.4-0.4,1-0.5,1.4-0.1l0.8,0.7c2.5-2.2,4.1-5.3,4.1-8.8C26.6,7.2,21.4,2,15,2S3.5,7.2,3.5,13.6
		S8.7,25.2,15,25.2c2.1,0,4.1-0.6,5.8-1.6l-0.4-0.4C20,22.8,19.9,22.2,20.3,21.8z M5.4,13.6C5.4,8.3,9.7,4,15,4s9.6,4.3,9.6,9.6
		s-4.3,9.6-9.6,9.6S5.4,18.9,5.4,13.6z"/>
	<polygon fill="#4E5D78" points="14.1,12.6 13.6,12.6 9.2,12.6 9.2,14.5 13.6,14.5 14.1,14.5 20.8,14.5 20.8,12.6 	"/>
	<path fill="#4E5D78" d="M28.6,27.9l-6.2-5.5c-0.5,0.4-1.1,0.8-1.7,1.2l6.5,5.8c0.4,0.4,1,0.3,1.4-0.1C29,28.9,29,28.2,28.6,27.9z"
		/>
	<path fill="#4E5D78" d="M21.7,21.7c-0.4-0.4-1-0.3-1.4,0.1c-0.4,0.4-0.3,1,0.1,1.4l0.4,0.4c0.6-0.3,1.2-0.7,1.7-1.2L21.7,21.7z"/>
</g>
<g>
	<polygon points="14.1,44.8 13.9,44.8 9.2,44.8 9.2,46.6 13.9,46.6 14.1,46.6 20.9,46.6 20.9,44.8 	"/>
	<path d="M28.6,60.1l-6.2-5.5c2.5-2.2,4.1-5.3,4.1-8.8c0-6.4-5.2-11.6-11.6-11.6S3.5,39.4,3.5,45.8S8.7,57.3,15,57.3
		c2.1,0,4.1-0.6,5.8-1.6l6.5,5.8c0.4,0.4,1,0.3,1.4-0.1C29,61,29,60.4,28.6,60.1z M5.4,45.8c0-5.3,4.3-9.6,9.6-9.6s9.6,4.3,9.6,9.6
		s-4.3,9.6-9.6,9.6S5.4,51,5.4,45.8z"/>
</g>
<g>
	<polygon fill="#009BE7" points="14.1,76.9 13.9,76.9 9.2,76.9 9.2,78.7 13.9,78.7 14.1,78.7 20.9,78.7 20.9,76.9 	"/>
	<path fill="#009BE7" d="M28.6,92.2l-6.2-5.5c2.5-2.2,4.1-5.3,4.1-8.8c0-6.4-5.2-11.6-11.6-11.6S3.5,71.4,3.5,77.8
		c0,6.4,5.2,11.6,11.6,11.6c2.1,0,4.1-0.6,5.8-1.6l6.5,5.8c0.4,0.4,1,0.3,1.4-0.1C29,93.1,29,92.5,28.6,92.2z M5.4,77.8
		c0-5.3,4.3-9.6,9.6-9.6s9.6,4.3,9.6,9.6c0,5.3-4.3,9.6-9.6,9.6S5.4,83.1,5.4,77.8z"/>
</g>
<g>
	<polygon fill="#FFFFFF" points="14.1,108.9 12.9,108.9 9.2,108.9 9.2,110.7 12.9,110.7 14.1,110.7 20.9,110.7 20.9,108.9 	"/>
	<path fill="#FFFFFF" d="M28.6,124.2l-6.2-5.5c2.5-2.2,4.1-5.3,4.1-8.8c0-6.4-5.2-11.6-11.6-11.6s-11.6,5.1-11.6,11.5
		c0,6.4,5.2,11.6,11.6,11.6c2.1,0,4.1-0.6,5.8-1.6l6.5,5.8c0.4,0.4,1,0.3,1.4-0.1C29,125.1,29,124.5,28.6,124.2z M5.4,109.8
		c0-5.3,4.3-9.6,9.6-9.6s9.6,4.3,9.6,9.6c0,5.3-4.3,9.6-9.6,9.6S5.4,115.1,5.4,109.8z"/>
</g>
</svg>
