<?xml version="1.0" encoding="utf-8"?>
<!-- Generator: Adobe Illustrator 17.1.0, SVG Export Plug-In . SVG Version: 6.00 Build 0)  -->
<!DOCTYPE svg PUBLIC "-//W3C//DTD SVG 1.1//EN" "http://www.w3.org/Graphics/SVG/1.1/DTD/svg11.dtd">
<svg version="1.1" id="Layer_1" xmlns:sketch="http://www.bohemiancoding.com/sketch/ns"
	 xmlns="http://www.w3.org/2000/svg" xmlns:xlink="http://www.w3.org/1999/xlink" x="0px" y="0px" viewBox="0 0 32 128"
	 enable-background="new 0 0 32 128" xml:space="preserve">
<g>
	<path fill="#4E5D78" d="M20.8,2H4v28h24.1V9.4L20.8,2z M9.4,5.3h1.3v2.8h2.2V5.3h3.5v4.1h-7V5.3z M25.6,27.5h-19V4.6h1.5v6.1h9.6
		V4.6h1.9l5.9,5.8V27.5z"/>
	<path fill="#4E5D78" d="M8.1,25.5h16V15.3h-16V25.5z M9.4,24.2v-1.9h13.4v1.9H9.4z M22.7,16.8V21H9.4v-4.3H22.7z"/>
	<rect x="10.5" y="17.8" fill="#4E5D78" width="11.2" height="0.6"/>
	<rect x="10.5" y="19.2" fill="#4E5D78" width="11.2" height="0.6"/>
</g>
<g>
	<path fill="#020202" d="M20.8,34H4v28h24.1V41.4L20.8,34z M9.4,37.4h1.3v2.8h2.2v-2.8h3.5v4.1h-7V37.4z M25.6,59.5h-19V36.6h1.5
		v6.1h9.6v-6.1h1.9l5.9,5.8V59.5z"/>
	<path fill="#020202" d="M8.1,57.5h16V47.3h-16V57.5z M9.4,56.2v-1.9h13.4v1.9H9.4z M22.7,48.8V53H9.4v-4.3H22.7z"/>
	<rect x="10.5" y="49.8" fill="#020202" width="11.2" height="0.6"/>
	<rect x="10.5" y="51.2" fill="#020202" width="11.2" height="0.6"/>
</g>
<g>
	<path fill="#009BE7" d="M20.8,66H4v28h24.1V73.4L20.8,66z M9.4,69.4h1.3v2.8h2.2v-2.8h3.5v4.1h-7V69.4z M25.6,91.5h-19V68.6h1.5
		v6.1h9.6v-6.1h1.9l5.9,5.8V91.5z"/>
	<path fill="#009BE7" d="M8.1,89.5h16V79.3h-16V89.5z M9.4,88.2v-1.9h13.4v1.9H9.4z M22.7,80.8V85H9.4v-4.3H22.7z"/>
	<rect x="10.5" y="81.8" fill="#009BE7" width="11.2" height="0.6"/>
	<rect x="10.5" y="83.2" fill="#009BE7" width="11.2" height="0.6"/>
</g>
<g>
	<path fill="#FFFFFF" d="M20.8,98H4v28h24.1v-20.7L20.8,98z M9.4,101.3h1.3v2.8h2.2v-2.8h3.5v4.1h-7V101.3z M25.6,123.4h-19v-22.8
		h1.5v6.1h9.6v-6.1h1.9l5.9,5.8V123.4z"/>
	<path fill="#FFFFFF" d="M8.1,121.5h16v-10.2h-16V121.5z M9.4,120.2v-1.9h13.4v1.9H9.4z M22.7,112.7v4.3H9.4v-4.3H22.7z"/>
	<rect x="10.5" y="113.7" fill="#FFFFFF" width="11.2" height="0.6"/>
	<rect x="10.5" y="115.2" fill="#FFFFFF" width="11.2" height="0.6"/>
</g>
</svg>
