<?xml version="1.0" standalone="no"?>
<!DOCTYPE svg PUBLIC "-//W3C//DTD SVG 1.1//EN" "http://www.w3.org/Graphics/SVG/1.1/DTD/svg11.dtd" >
<svg xmlns="http://www.w3.org/2000/svg">
<metadata>
<json>
<![CDATA[
{
	"fontFamily": "tt-icons",
	"majorVersion": 1,
	"minorVersion": 0,
	"description": "Font generated by IcoMoon.",
	"version": "Version 1.0",
	"fontId": "tt-icons",
	"psName": "tt-icons",
	"subFamily": "Regular",
	"fullName": "tt-icons"
}
]]>
</json>
</metadata>
<defs>
<font id="tt-icons" horiz-adv-x="512">
<font-face units-per-em="512" ascent="480" descent="-32" />
<missing-glyph horiz-adv-x="512" />
<glyph unicode="&#x20;" horiz-adv-x="256" d="" />
<glyph unicode="&#xe000;" glyph-name="uniE000" data-tags="uniE000" d="M512 480v-208l-80 80-96-96-48 48 96 96-80 80zM224 144l-96-96 80-80h-208v208l80-80 96 96z" />
<glyph unicode="&#xe00a;" glyph-name="uniE00A" data-tags="uniE00A" horiz-adv-x="207" d="M183 185h-159q-10 0-17 6.5t-7 16.5v100q0 10 7 17t17 7h36l1 2q8 22 12 22h65q4 0 13-22 0-1 1-2h31q10 0 17-7t7-17v-100q0-10-7-16.5t-17-6.5zM68 319h-42q-14 0-14-14v-94q0-14 14-14h154q14 0 14 14v94q0 14-14 14h-36l-1 3q-1 1-1 2.5t-1 2.5q-5 14-7 16h-57zM103 221q-18 0-30 12.5t-12 30.5 12 30.5 30 12.5 30.5-12.5 12.5-30.5-12.5-30.5-30.5-12.5zM103 296q-13 0-22-9.5t-9-22.5 9-22.5 22-9.5 22.5 9.5 9.5 22.5-9.5 22.5-22.5 9.5z" />
<glyph unicode="&#xe00b;" glyph-name="uniE00B" data-tags="uniE00B" d="M224 192v-208l-80 80-96-96-48 48 96 96-80 80zM512 432l-96-96 80-80h-208v208l80-80 96 96z" />
<glyph unicode="&#xe601;" glyph-name="uniE601" data-tags="uniE601" d="M512 175.953v96.094l-73.387 12.231c-2.979 9.066-6.611 17.834-10.847 26.25l43.227 60.517-67.948 67.949-60.413-43.152c-8.455 4.277-17.269 7.944-26.384 10.951l-12.201 73.207h-96.094l-12.201-73.208c-9.115-3.007-17.929-6.674-26.383-10.951l-60.414 43.152-67.949-67.949 43.227-60.518c-4.235-8.415-7.867-17.183-10.846-26.249l-73.387-12.23v-96.094l73.559-12.26c2.98-8.984 6.605-17.674 10.821-26.015l-43.374-60.724 67.949-67.948 60.827 43.447c8.301-4.175 16.945-7.764 25.882-10.717l12.289-73.736h96.094l12.289 73.737c8.937 2.953 17.581 6.542 25.883 10.716l60.826-43.446 67.948 67.948-43.372 60.723c4.216 8.341 7.839 17.031 10.82 26.016l73.559 12.259zM256 160c-35.346 0-64 28.653-64 64s28.654 64 64 64c35.347 0 64-28.654 64-64s-28.653-64-64-64z" />
<glyph unicode="&#xe609;" glyph-name="cross" data-tags="cross, cancel, close, remove, delete" d="M406.592 117.764l-95.501 109.144 95.501 109.144c16.241 16.241 16.241 42.558 0 58.76s-42.557 16.204-58.76 0l-91.828-104.953-91.794 104.918c-16.239 16.24-42.558 16.24-58.761 0s-16.204-42.558 0-58.76l95.464-109.109-95.501-109.144c-16.204-16.241-16.204-42.488 0-58.692 16.239-16.241 42.558-16.241 58.761 0l91.828 104.885 91.794-104.885c16.241-16.241 42.557-16.241 58.76 0s16.241 42.45 0.034 58.692z" />
<glyph unicode="&#xe900;" glyph-name="-01" data-tags="聊天-01" d="M477.866 377.6h-443.733c-17.067 0-25.6-12.8-25.6-25.6v-243.2c0-17.067 12.8-29.866 29.866-29.866h234.666l93.867-55.466-17.067 55.466h132.267c17.067 0 29.866 12.8 29.866 29.866v243.2c-4.267 12.8-17.067 25.6-34.133 25.6zM106.666 198.4c-17.067 0-34.133 12.8-34.133 34.133 0 17.066 17.067 34.133 34.133 34.133s34.134-12.8 34.134-34.133c0-17.066-17.067-34.133-34.133-34.133zM256 198.4c-17.066 0-34.133 12.8-34.133 34.133 0 17.066 17.066 34.133 34.133 34.133s34.134-12.8 34.134-34.133c0-17.066-17.067-34.133-34.134-34.133zM405.334 198.4c-17.067 0-34.133 12.8-34.133 34.133 4.267 17.066 17.067 34.133 34.134 34.133s34.134-12.8 34.134-34.133c0-17.066-12.8-34.133-34.134-34.133z" />
<glyph unicode="&#xe901;" glyph-name="-012" data-tags="摄像头-01" d="M256 471.466c-102.4 0-187.733-85.334-187.733-187.733s85.334-187.733 187.733-187.733 187.733 85.334 187.733 187.733c0 102.4-85.334 187.733-187.733 187.733zM256 189.866c-51.2 0-89.6 42.666-89.6 89.6 0 51.2 42.667 89.6 89.6 89.6s89.6-42.666 89.6-89.6c0-46.934-38.4-89.6-89.6-89.6zM302.933 283.733c0-25.921-21.013-46.934-46.934-46.934s-46.934 21.013-46.934 46.934c0 25.921 21.013 46.934 46.934 46.934s46.934-21.013 46.934-46.934zM443.733 44.8h-140.8c89.6 17.067 166.4 72.534 204.8 157.867l-29.866 12.8c-38.4-85.334-123.733-140.8-217.6-140.8s-183.466 55.466-217.6 145.067l-34.133-17.067c38.4-85.334 115.2-145.067 204.8-162.134h-145.066c-12.8 0-25.6-12.8-25.6-25.6v-12.8c0-12.8 12.8-25.6 25.6-25.6h371.2c12.8 0 25.6 12.8 25.6 25.6v12.8c4.267 17.067-8.534 29.866-21.334 29.866z" />
<glyph unicode="&#xe902;" glyph-name="-013" data-tags="文件-01" d="M17.067 74.666c0 4.267 0 8.534 0 12.8l42.666 179.2c8.534 29.867 38.4 59.733 72.534 59.733h320c-8.534 17.067-25.6 25.6-42.666 25.6h-213.333c-12.8 12.8-29.867 21.333-46.934 21.333h-85.334c-34.133 0-59.733-25.6-59.733-59.733v-230.4c0 0 0 0 0-4.267 4.267-17.067 8.534-34.133 29.866-42.666-8.534 12.8-17.067 25.6-17.067 38.4zM503.466 292.267c-4.267 4.267-8.534 8.534-17.067 8.534h-354.134c-21.334 0-42.666-17.066-46.934-38.4l-38.4-179.2c0-8.534 0-17.067 4.267-21.334s8.534-8.534 17.067-8.534h349.866c21.334 0 42.666 17.067 46.933 38.4l42.666 174.934c0 12.8 0 21.333-4.267 25.6z" />
<glyph unicode="&#xe903;" glyph-name="fanye-01" data-tags="fanye-01" d="M495.398 211.4l-403.197-233.098c-6.3-6.3-18.9 6.3-18.9 12.6v466.197c0 12.6 12.6 18.9 18.9 12.6l403.197-233.098c6.3-6.3 6.3-18.9 0-25.2z" />
<glyph unicode="&#xe904;" glyph-name="gangbi-01" data-tags="gangbi-01" d="M377.6 371.2c19.2 0 32 12.8 32 32v25.6c0 19.2-12.8 32-32 32h-224c-19.2 0-32-12.8-32-32v-32c0-19.2 12.8-32 32-32h44.8v-12.8l-70.4-83.2v-32l121.6-262.4 6.4 249.6c-25.6 0-44.8 19.2-44.8 44.8s25.6 44.8 51.2 44.8c32 0 57.6-19.2 57.6-44.8s-19.2-44.8-44.8-44.8v-249.6l128 262.4v32l-70.4 89.6v12.8h44.8z" />
<glyph unicode="&#xe905;" glyph-name="shangchuan-01" data-tags="shangchuan-01" d="M249.6 441.6l-128-153.6h70.4v-172.8h128v172.8h76.8zM505.6 19.2h-499.2v134.4h25.6v-115.2h448v115.2h25.6z" />
<glyph unicode="&#xe906;" glyph-name="tuxing-01" data-tags="tuxing-01" d="M326.4 320v147.2h-320v-345.6h153.6c0 12.8 0 19.2 0 32 0 89.6 76.8 166.4 166.4 166.4zM505.6 147.2c0-91.9-74.5-166.4-166.4-166.4s-166.4 74.5-166.4 166.4c0 91.9 74.5 166.4 166.4 166.4s166.4-74.5 166.4-166.4z" />
<glyph unicode="&#xe907;" glyph-name="wenzi-01-01" data-tags="wenzi-01-01" d="M415.921 448.034c-12.822 0-19.144-6.321-25.645-6.321h-262.231c-12.823 6.321-19.144 6.321-25.645 6.321-38.468 0-83.257-76.755-83.257-128.045 0-19.144 12.822-44.788 38.468-44.788 57.612 0 70.434 76.755 95.898 76.755 6.321 0 19.143 0 19.143-63.933l-12.822-140.868c0-5.418 0-12.281-0.18-19.685-1.625-22.936-4.515-48.582-9.572-55.805-0.18-0.361-0.542-0.542-0.722-0.903-1.806-1.806-9.752-8.127-19.324-11.558 0 0 0 0 0 0s-3.070-0.903-7.043-2.348c-5.418-1.986-10.294-3.973-14.087-7.404-1.987-1.625-3.612-3.251-4.154-5.057 0 0 0 0 0-0.18-1.445-2.709-2.348-5.96-2.709-10.113-0.18-1.625-0.18-3.612 0.18-5.418 0.361-2.709 0.903-5.057 1.987-7.043 1.264-2.889 3.251-5.779 6.321-8.488 4.515-4.154 10.656-6.321 16.977-6.321h238.031c9.752 0 18.963 5.418 22.936 14.267 1.264 2.709 1.986 5.599 1.625 8.669 0 0 4.334 23.659-21.13 29.077-3.432 1.264-7.224 2.529-10.836 3.973-7.043 3.612-16.074 10.113-20.769 21.13-1.084 2.709-1.986 5.599-2.709 8.849-0.18 1.084-0.18 1.986-0.361 3.070l-1.264 45.692c0 1.806-0.361 3.432-0.723 5.057v167.054c0 6.321-6.321 38.468 19.144 38.468 31.966 0 31.966-76.755 89.577-70.434 31.966 0 51.109 19.144 51.109 51.11 0.542 63.933-50.568 115.222-76.213 115.222z" />
<glyph unicode="&#xe908;" glyph-name="xian-01" data-tags="xian-01" d="M482.998 449.634l13.26-13.886-467.476-446.404-13.259 13.885 467.476 446.404z" />
<glyph unicode="&#xe909;" glyph-name="xiangpi-01" data-tags="xiangpi-01" d="M486.4 377.6l-166.4 64-224-217.6 160-57.6zM96 211.2l-70.4-134.4 166.4-70.4 57.6 153.6zM204.8 6.4l243.2 243.2 38.4 115.2-230.4-211.2z" />
<glyph unicode="&#xe90a;" glyph-name="yanse-01" data-tags="yanse-01" d="M211.2 473.6h-179.2c-12.8 0-19.2-6.4-19.2-19.2v-185.6c0-12.8 6.4-19.2 19.2-19.2h185.6c12.8 0 19.2 6.4 19.2 19.2v185.6c-6.4 6.4-12.8 19.2-25.6 19.2zM486.4 473.6h-185.6c-12.8 0-19.2-6.4-19.2-19.2v-185.6c0-12.8 6.4-19.2 19.2-19.2h185.6c12.8 0 19.2 6.4 19.2 19.2v185.6c0 6.4-12.8 19.2-19.2 19.2zM211.2 204.8h-179.2c-12.8 0-19.2-6.4-19.2-19.2v-185.6c0-12.8 6.4-19.2 19.2-19.2h185.6c12.8 0 19.2 6.4 19.2 19.2v185.6c-6.4 12.8-12.8 19.2-25.6 19.2zM486.4 204.8h-185.6c-12.8 0-19.2-6.4-19.2-19.2v-185.6c0-12.8 6.4-19.2 19.2-19.2h185.6c12.8 0 19.2 6.4 19.2 19.2v185.6c0 12.8-12.8 19.2-19.2 19.2z" />
<glyph unicode="&#xe90b;" glyph-name="maikefeng-01-01" data-tags="maikefeng-01-01" d="M256 128c44.8 0 76.8 32 76.8 76.8v192c0 44.8-32 76.8-76.8 76.8s-76.8-38.4-76.8-76.8v-192c0-38.4 32-76.8 76.8-76.8zM384 275.2v-76.8c0-70.4-57.6-128-128-128s-121.6 57.6-121.6 121.6v83.2h-19.2v-83.2c0-76.8 57.6-140.8 134.4-140.8v-57.6h-57.6v-19.2h128v19.2h-57.6v57.6c76.8 6.4 134.4 64 134.4 140.8v83.2h-12.8z" />
<glyph unicode="&#xe90c;" glyph-name="G_shexiang-01" data-tags="G_shexiang-01" d="M10.091 395.498l10.914 15.798 473.933-327.399-10.913-15.798-473.933 327.399zM448 326.4l-96-51.2v6.4c0 25.6-19.2 44.8-44.8 44.8h-128l268.8-179.2v179.2zM64 281.6v-115.2c0-19.2 19.2-38.4 44.8-38.4h198.4c12.8 0 25.6 6.4 32 19.2l-256 172.8c-6.4-6.4-19.2-19.2-19.2-38.4z" />
<glyph unicode="&#xe90d;" glyph-name="shexiang-01-01" data-tags="shexiang-01-01" d="M448 320l-96-44.8c0 25.6-19.2 44.8-44.8 44.8h-198.4c-25.6 0-44.8-19.2-44.8-44.8v-115.2c0-19.2 19.2-38.4 44.8-38.4h198.4c25.6 0 44.8 19.2 44.8 44.8v6.4l96-44.8v192z" />
<glyph unicode="&#xe90e;" glyph-name="-014" data-tags="白板-01" d="M443.733 403.2h-136.534v21.334h-38.4v25.6c0 8.534-4.267 12.8-12.8 12.8s-12.8-4.266-12.8-12.8v-25.6h-38.4v-21.334h-136.534v-221.866h375.466v221.867zM294.4 377.6h-76.8v38.4h76.8v-38.4zM473.6 168.534h-435.2c-12.8 0-21.334-8.534-21.334-21.334s8.534-21.334 21.334-21.334h102.4l-72.534-72.534c-12.8-12.8-17.067-29.866-8.534-38.4s25.6-8.534 38.4 4.267l106.666 102.4c0 0 0 0 0 0h21.334v-110.933c0-12.8 8.534-25.6 25.6-25.6 12.8 0 25.6 8.534 25.6 25.6v115.2h25.6c0 0 0 0 0 0l106.666-102.4c12.8-12.8 29.866-12.8 38.4-4.267s4.267 25.6-8.534 38.4l-68.267 68.267h102.4c12.8 0 21.334 8.534 21.334 21.334s-8.534 21.334-21.334 21.334z" />
<glyph unicode="&#xe90f;" glyph-name="G_maikefeng-01-01" data-tags="G_maikefeng-01-01" d="M332.8 256v140.8c0 44.8-32 76.8-76.8 76.8s-76.8-38.4-76.8-76.8v-38.4l153.6-102.4zM179.2 268.8v-64c0-44.8 32-76.8 76.8-76.8 25.6 0 51.2 19.2 64 38.4l-140.8 102.4zM396.8 204.8v70.4h-12.8v-57.6zM384 128l-19.2 12.8c-19.2-38.4-64-64-108.8-64-70.4 0-121.6 57.6-121.6 121.6v76.8h-19.2v-83.2c0-76.8 57.6-140.8 134.4-140.8v-57.6h-57.6v-19.2h128v19.2h-57.6v57.6c51.2 0 96 32 121.6 76.8zM32.846 429.661l467.983-324.729-14.594-21.033-467.983 324.729 14.594 21.033z" />
<glyph unicode="&#xe910;" glyph-name="user" data-tags="user, profile, avatar, person, talk, member, employee, job, official" d="M160 384c0 53.019 42.981 96 96 96s96-42.981 96-96c0-53.019-42.981-96-96-96s-96 42.981-96 96zM384.039 256h-17.712l-99.552-202.122 37.225 186.122-48 48-48-48 37.225-186.122-99.551 202.122h-17.712c-63.962 0-63.962-42.993-63.962-96v-160h384v160c0 53.007 0 96-63.961 96z" />
<glyph unicode="&#xe911;" glyph-name="key" data-tags="key, password, login, log in, signin, sign in" d="M352 480c-88.365 0-160-71.634-160-160 0-10.013 0.929-19.808 2.688-29.312l-194.688-194.688v-96c0-17.673 14.327-32 32-32h32v32h64v64h64v64h64l41.521 41.521c17.005-6.158 35.348-9.521 54.479-9.521 88.365 0 160 71.634 160 160s-71.635 160-160 160zM399.937 319.937c-26.51 0-48 21.49-48 48s21.49 48 48 48 48-21.49 48-48-21.49-48-48-48z" />
<glyph unicode="&#xe912;" glyph-name="fang-01" data-tags="fang-01" d="M12.006 467.994h487.988v-487.988h-487.988v487.988z" />
<glyph unicode="&#xe913;" glyph-name="yuan-01" data-tags="yuan-01" d="M499.994 224c0-134.755-109.24-243.994-243.994-243.994s-243.994 109.24-243.994 243.994c0 134.755 109.24 243.994 243.994 243.994s243.994-109.24 243.994-243.994z" />
<glyph unicode="&#xe914;" glyph-name="g1111111-01" data-tags="g1111111-01" d="M334.327 401.020l-12.367-28.857c65.959-28.857 111.306-90.693 111.306-164.898 0-98.939-78.327-177.265-177.266-177.265s-177.266 78.327-177.266 177.265c0 70.082 41.225 136.041 107.183 160.776l-12.367 32.979c-74.204-32.979-123.674-107.183-123.674-193.755 0-115.428 94.817-206.123 206.123-206.123 115.428 0 206.123 94.817 206.123 206.123 0 86.571-49.469 160.776-127.796 193.755zM256 227.877c8.245 0 12.367 8.245 12.367 12.367v206.122c0 8.246-8.245 12.367-12.367 12.367s-12.367-4.123-12.367-12.367v-206.122c0-8.245 4.123-12.367 12.367-12.367z" />
<glyph unicode="&#xe915;" glyph-name="sp1111111-01" data-tags="sp1111111-01" d="M456.534 428.8h-401.067c-25.6 0-42.666-17.067-42.666-42.666v-294.4c0-25.6 17.067-42.666 42.666-42.666h401.067c25.6 0 42.666 17.067 42.666 42.666v294.4c0 25.6-17.067 42.666-42.666 42.666zM430.933 386.134c8.534 0 17.067-8.534 17.067-17.067s-8.534-17.067-17.067-17.067-17.067 4.267-17.067 17.067c0 8.534 8.534 17.067 17.067 17.067zM315.733 386.134c8.534 0 17.067-8.534 17.067-17.067 0-12.8-8.534-17.067-17.067-17.067-12.8 0-17.067 4.267-17.067 17.067 0 8.534 4.267 17.067 17.067 17.067zM200.534 386.134c8.534 0 17.066-8.534 17.066-17.067 0-12.8-8.534-17.067-17.066-17.067s-21.334 4.267-21.334 17.067c0 8.534 8.534 17.067 21.334 17.067zM81.067 386.134c8.534 0 17.067-8.534 17.067-17.067 0-12.8-8.534-17.067-17.067-17.067s-17.067 4.267-17.067 17.067c0 8.534 8.534 17.067 17.067 17.067zM473.6 117.334c0-25.6-17.067-42.666-42.666-42.666h-349.866c-25.6 0-42.666 17.067-42.666 42.666v174.934c0 25.6 17.067 42.666 42.666 42.666h349.866c25.6 0 42.666-17.066 42.666-42.666v-174.933zM204.8 283.733c-8.534 4.267-17.066 0-17.066-8.534v-136.534c0-8.534 8.534-12.8 17.066-8.534l115.2 64c8.534 4.267 8.534 17.067 0 21.334l-115.2 68.267z" />
<glyph unicode="&#xe916;" glyph-name="document-file-ppt" data-tags="document-file-ppt" d="M446.413 282.404h-82.14v70.938l-112.007 130.675h-205.349c-22.406 0-37.337-14.933-37.337-37.337v-429.362c0-22.406 14.933-37.337 37.337-37.337h280.019c22.406 0 37.337 14.933 37.337 37.337v44.803h82.14c29.87 0 56.005 26.135 56.005 56.005v108.276c0 29.87-26.135 56.006-56.005 56.006zM252.268 457.883l89.607-104.54h-74.674c-7.466 0-14.933 11.202-14.933 18.668v85.871zM345.609 62.122v-44.803c0-11.202-7.466-18.668-18.668-18.668h-280.019c-11.202 0-18.669 7.466-18.669 18.668v429.362c0 11.202 7.467 18.668 18.669 18.668h186.68v-93.338c0-22.406 14.933-37.337 37.337-37.337h74.674v-52.27h-186.68c-29.87 0-56.005-26.135-56.005-56.006v-108.275c0-29.87 26.135-56.005 56.005-56.005h186.68zM483.752 118.123c0-18.668-14.933-37.337-37.337-37.337h-291.221c-18.668 0-37.337 14.933-37.337 37.337v108.276c0 18.668 14.933 37.337 37.337 37.337h291.221c18.668 0 37.337-14.933 37.337-37.337v-108.275zM312.007 226.399h-48.533v-112.007h14.933v48.533h33.601c18.668 0 33.601 14.933 33.601 33.601s-14.933 29.871-33.601 29.871zM312.007 181.595h-29.87v29.87h33.601c7.466 0 14.933-7.466 14.933-14.933 0-11.202-7.466-14.933-18.668-14.933zM218.666 226.399h-48.533v-112.007h14.933v48.533h33.601c18.668 0 33.601 14.933 33.601 33.601-3.736 18.668-18.668 29.871-33.601 29.871zM218.666 181.595h-33.601v29.87h33.601c7.466 0 14.933-7.466 14.933-14.933 0-11.202-7.466-14.933-14.933-14.933zM360.543 211.466h33.601v-97.073h14.933v97.073h33.601v14.933h-82.14z" />
<glyph unicode="&#xe917;" glyph-name="tupian-021" data-tags="tupian-021" horiz-adv-x="544" d="M272 483.734c-145.275 0-259.734-114.459-259.734-259.734s118.861-259.734 259.734-259.734 259.734 118.861 259.734 259.734-114.459 259.734-259.734 259.734zM272-18.125c-132.068 0-242.125 110.057-242.125 242.125s110.056 242.125 242.125 242.125 242.125-110.057 242.125-242.125-105.654-242.125-242.125-242.125zM302.815 298.838v17.608c0 8.804-8.805 17.608-17.608 17.608h-26.414c-8.804 0-17.608-8.805-17.608-17.608v-13.207h-114.459v-184.895h294.952v180.493h-118.861zM272 135.954c-39.62 0-70.436 35.219-70.436 70.436 0 39.62 30.816 70.436 70.436 70.436s70.436-30.815 70.436-70.436c0-35.219-30.815-70.436-70.436-70.436zM329.229 206.391c0-31.608-25.623-57.229-57.229-57.229s-57.23 25.623-57.23 57.23c0 31.608 25.623 57.229 57.23 57.229s57.23-25.623 57.23-57.229z" />
<glyph unicode="&#xe918;" glyph-name="shipin-021" data-tags="shipin-021" horiz-adv-x="544" d="M272 475.733c-140.8 0-251.733-110.933-251.733-251.733s115.2-251.734 251.733-251.734 251.734 115.2 251.734 251.734-110.933 251.733-251.733 251.733zM272-10.667c-128 0-234.667 106.666-234.667 234.666s106.667 234.667 234.667 234.667 234.667-106.667 234.667-234.667-106.666-234.666-234.667-234.666zM152.533 305.066h64v8.534h-72.534v-55.466h8.534zM152.533 189.866h-8.534v-55.466h72.534v8.534h-64zM327.466 305.066h64v-46.933h8.534v55.466h-72.534zM391.467 142.933h-64v-8.534h72.534v55.466h-8.534zM203.733 270.933h136.534v-89.6h-136.534v89.6z" />
<glyph unicode="&#xe919;" glyph-name="jieshu-021" data-tags="jieshu-021" horiz-adv-x="544" d="M272 483.734c-145.275 0-259.734-114.459-259.734-259.734s118.861-259.734 259.734-259.734 259.734 118.861 259.734 259.734-114.459 259.734-259.734 259.734zM272-18.125c-132.068 0-242.125 110.057-242.125 242.125s110.056 242.125 242.125 242.125 242.125-110.057 242.125-242.125-110.057-242.125-242.125-242.125zM272 316.447c8.805 0 13.207 4.402 13.207 8.804v39.62c0 4.403-4.402 8.805-13.207 8.805s-13.207 0-13.207-8.805v-39.62c0-4.402 4.402-8.804 13.207-8.804zM298.414 334.056v-17.608c48.425-13.207 88.046-57.229 88.046-110.056 0-61.632-52.827-114.459-114.459-114.459s-114.459 52.827-114.459 114.459c0 52.827 35.219 96.849 88.046 110.056v17.608c-4.403 0-4.403 0-8.804 0-52.827-13.207-92.448-66.034-92.448-123.264 0-74.839 57.23-132.068 127.666-132.068s127.666 57.23 127.666 127.666c0 66.034-44.022 118.861-101.252 127.666z" />
<glyph unicode="&#xe91a;" glyph-name="fujian-021" data-tags="fujian-021" horiz-adv-x="544" d="M272 483.734c-145.275 0-259.734-114.459-259.734-259.734s118.861-259.734 259.734-259.734 259.734 118.861 259.734 259.734-114.459 259.734-259.734 259.734zM272-18.125c-132.068 0-242.125 110.057-242.125 242.125s110.056 242.125 242.125 242.125 242.125-110.057 242.125-242.125-110.057-242.125-242.125-242.125zM205.966 316.447h44.023v-13.207h-44.023v13.207zM205.966 285.632h66.034v-13.207h-66.034v13.207zM205.966 228.402h154.079v-13.207h-154.079v13.207zM205.966 193.184h154.079v-13.207h-154.079v13.207zM205.966 153.564h154.079v-13.207h-154.079v13.207zM205.966 118.345h154.079v-13.207h-154.079v13.207zM342.436 369.275v0h-167.286v-294.952h215.711v250.929l-48.425 44.023zM368.849 325.252h-26.414v26.414l26.414-26.414zM377.654 87.529h-189.298v268.538h140.873v-48.425h44.022v-220.113z" />
<glyph unicode="&#xe91b;" glyph-name="baiban-021" data-tags="baiban-021" horiz-adv-x="544" d="M272 484c-145.423 0-260-114.577-260-260s118.983-260 260-260 260 114.577 260 260-114.577 260-260 260zM272-18.374c-132.203 0-242.374 110.168-242.374 242.374s110.168 242.374 242.374 242.374 242.374-110.168 242.374-242.374-105.762-242.374-242.374-242.374zM126.576 131.458h290.846v185.084h-290.846v-185.084zM364.542 144.678h-79.322v70.507h-145.423v35.255h220.339v-105.762zM139.797 303.322h264.406v-158.644h-26.441v118.983h-237.965v39.661z" />
<glyph unicode="&#xe91c;" glyph-name="apps" data-tags="apps" d="M372.83-21.699v118.202h118.202v-118.202h-118.202zM372.83 154.232v118.202h118.202v-118.202h-118.202zM196.899 330.163v118.202h118.202v-118.202h-118.202zM372.83 448.365h118.202v-118.202h-118.202v118.202zM196.899 154.232v118.202h118.202v-118.202h-118.202zM20.968 154.232v118.202h118.202v-118.202h-118.202zM20.968-21.699v118.202h118.202v-118.202h-118.202zM196.899-21.699v118.202h118.202v-118.202h-118.202zM20.968 330.163v118.202h118.202v-118.202h-118.202z" />
<glyph unicode="&#xe91d;" glyph-name="file-text-o" data-tags="file-text-o" horiz-adv-x="439" d="M419.428 366.857q8-8 13.714-21.714t5.714-25.143v-329.143q0-11.428-8-19.428t-19.428-8h-384q-11.428 0-19.428 8t-8 19.428v457.143q0 11.428 8 19.428t19.428 8h256q11.428 0 25.143-5.714t21.714-13.714zM292.572 436.572v-107.428h107.428q-2.857 8.286-6.286 11.714l-89.428 89.428q-3.428 3.428-11.714 6.286zM402.286 0v292.572h-118.857q-11.428 0-19.428 8t-8 19.428v118.857h-219.429v-438.857h365.714zM109.715 246.857q0 4 2.572 6.572t6.572 2.571h201.143q4 0 6.572-2.571t2.572-6.572v-18.286q0-4-2.572-6.572t-6.572-2.572h-201.143q-4 0-6.572 2.571t-2.572 6.572v18.286zM320 182.857q4 0 6.572-2.572t2.572-6.572v-18.286q0-4-2.572-6.572t-6.572-2.572h-201.143q-4 0-6.572 2.572t-2.572 6.572v18.286q0 4 2.572 6.572t6.572 2.572h201.143zM320 109.714q4 0 6.572-2.572t2.572-6.572v-18.286q0-4-2.572-6.572t-6.572-2.572h-201.143q-4 0-6.572 2.572t-2.572 6.572v18.286q0 4 2.572 6.572t6.572 2.572h201.143z" />
<glyph unicode="&#xe91e;" glyph-name="jujiao-01" data-tags="jujiao-01" d="M328.534 224c0-32.99-26.743-59.733-59.733-59.733s-59.733 26.743-59.733 59.733c0 32.99 26.744 59.733 59.733 59.733s59.733-26.743 59.733-59.733zM435.2 224c0 93.866-76.8 166.4-166.4 166.4-93.867 0-166.4-72.534-166.4-166.4s76.8-166.4 166.4-166.4c93.866 0 166.4 76.8 166.4 166.4zM268.8 91.733c-72.534 0-132.267 59.733-132.267 132.267s59.733 132.267 132.267 132.267c72.534 0 132.267-59.733 132.267-132.267s-59.733-132.267-132.267-132.267zM72.534 296.534c-29.867 55.466-34.133 102.4-12.8 128 25.6 25.6 72.533 17.067 128-8.534l25.6 25.6c-72.534 38.4-145.066 46.933-179.2 8.534-34.133-34.134-29.866-102.4 12.8-179.2l25.6 25.6zM452.267 424.534c25.6-25.6 17.067-72.534-8.534-128l25.6-25.6c38.4 72.534 46.934 145.067 12.8 179.2-38.4 38.4-110.933 29.866-183.466-8.534l25.6-25.6c55.466 25.6 102.4 34.134 128 8.534zM59.733 23.466c-21.334 25.6-17.066 72.534 12.8 128l-25.6 25.6c-42.666-76.8-46.934-145.067-12.8-179.2 34.133-38.4 106.667-29.866 179.2 8.534l-25.6 25.6c-55.466-25.6-102.4-34.133-128-8.534zM439.466 151.466c29.866-55.466 34.134-102.4 8.534-128s-72.534-17.067-128 8.534l-21.334-25.6c72.534-38.4 145.066-46.933 179.2-12.8s29.866 106.666-12.8 179.2l-25.6-21.334z" />
<glyph unicode="&#xe91f;" glyph-name="jujiao_-01" data-tags="jujiao_-01" d="M41.285 476.639l464.612-464.612-27.152-27.152-464.612 464.612 27.153 27.152zM422.4 224c0 85.334-68.267 153.6-153.6 153.6-85.334 4.266-157.867-68.267-157.867-153.6s68.266-153.6 153.6-153.6c89.6 0 157.867 68.267 157.867 153.6zM268.8 100.267c-68.267 0-123.733 55.466-123.733 123.733s55.466 123.733 123.733 123.733c68.267 0 123.733-55.466 123.733-123.733s-55.466-123.733-123.733-123.733zM435.2 411.733c21.334-21.334 17.067-68.267-8.534-119.466l25.6-25.6c38.4 68.266 42.666 132.266 12.8 166.4-38.4 34.134-102.4 29.866-170.667-8.534l25.6-25.6c51.2 29.867 93.866 34.134 115.2 12.8zM76.8 36.267c-25.6 25.6-17.067 68.267 8.534 119.466l-25.6 21.334c-38.4-68.267-42.666-132.267-12.8-166.4 34.133-34.134 98.134-25.6 166.4 12.8l-25.6 25.6c-46.934-29.866-89.6-34.133-110.933-12.8zM192 398.933l25.6 25.6c-51.2 29.866-102.4 38.4-136.534 29.866l29.867-29.866c21.334 0 51.2-8.534 81.067-25.6zM85.334 292.267c-17.067 38.4-25.6 68.267-21.334 93.867l-29.867 25.6c-12.8-34.133-4.267-85.334 25.6-140.8l25.6 21.334zM268.8 283.733c-4.267 0-8.534 0-12.8 0l68.267-68.267c0 4.267 0 8.534 0 12.8 0 29.867-25.6 55.466-55.466 55.466zM209.066 224c0-29.866 25.6-55.466 55.467-55.466 4.267 0 8.534 0 12.8 0l-64 68.267c0-4.267-4.267-8.534-4.267-12.8zM426.666 155.733c12.8-25.6 21.334-51.2 21.334-72.534l29.866-29.866c8.534 34.133-4.267 81.067-29.866 128l-21.334-25.6zM320 49.067l-25.6-25.6c59.733-34.134 115.2-42.666 153.6-21.334l-25.6 25.6c-25.6-8.534-64 0-102.4 21.334z" />
<glyph unicode="&#xe920;" glyph-name="arrows" data-tags="arrows" d="M512 219.429q0-7.428-5.428-12.857l-73.143-73.143q-5.428-5.428-12.857-5.428t-12.857 5.428-5.428 12.857v36.572h-109.714v-109.714h36.572q7.428 0 12.857-5.428t5.428-12.857-5.428-12.857l-73.143-73.143q-5.428-5.428-12.857-5.428t-12.857 5.428l-73.143 73.143q-5.428 5.428-5.428 12.857t5.428 12.857 12.857 5.428h36.571v109.714h-109.715v-36.572q0-7.428-5.428-12.857t-12.857-5.428-12.857 5.428l-73.143 73.143q-5.428 5.428-5.428 12.857t5.428 12.857l73.143 73.143q5.428 5.428 12.857 5.428t12.857-5.428 5.428-12.857v-36.571h109.715v109.714h-36.572q-7.428 0-12.857 5.428t-5.429 12.857 5.428 12.857l73.143 73.143q5.429 5.428 12.857 5.428t12.857-5.428l73.143-73.143q5.428-5.428 5.428-12.857t-5.428-12.857-12.857-5.428h-36.572v-109.714h109.714v36.572q0 7.428 5.428 12.857t12.857 5.429 12.857-5.428l73.143-73.143q5.428-5.428 5.428-12.857z" />
<glyph unicode="&#xe921;" glyph-name="gongxiang-01" data-tags="gongxiang-01" horiz-adv-x="536" d="M267.998 483.733c-145.275 0-259.733-114.459-259.733-259.733s118.861-259.734 259.733-259.734 259.733 118.861 259.733 259.733-114.459 259.733-259.733 259.733zM267.998-18.125c-132.068 0-242.125 110.057-242.125 242.125s110.056 242.125 242.125 242.125 242.125-110.057 242.125-242.125-110.056-242.125-242.125-242.125zM435.285 166.771h-13.207c4.402 4.402 4.402 13.207 4.402 17.608v145.275c0 17.609-13.207 30.816-30.815 30.816h-255.331c-17.608 0-30.816-13.207-30.816-30.816v-145.275c0-8.805 4.403-13.207 8.805-22.012h-17.608c-13.207 0-22.011-8.805-22.011-22.012v-22.012c0-13.207 8.805-22.012 22.011-22.012h334.572c13.207 0 22.012 8.805 22.012 22.012v26.414c0 13.207-8.805 22.012-22.012 22.012zM127.126 329.654c0 8.804 4.403 13.207 13.207 13.207h255.331c8.805 0 13.207-4.403 13.207-13.207v-145.275c0-8.805-4.402-13.207-13.207-13.207h-255.331c-8.804 0-13.207 8.805-13.207 13.207v145.275zM439.687 122.748c0 0-4.402-4.402-4.402-4.402h-334.572c-4.403 0-4.403 0-4.403 4.402v22.012c0 0 4.403 4.402 4.403 4.402h334.572c4.402 0 4.402 0 4.402-4.402v-22.012zM342.837 268.023l-61.632 52.827v-35.219c-4.402 0-74.839 0-88.046-92.447 0 0 70.435 79.241 88.046 39.62v-26.414l61.632 61.632z" />
<glyph unicode="&#xe922;" glyph-name="uniE0002" data-tags="uniE000" d="M496 412.8c0 16-6.4 28.8-6.4 28.8s-9.6 16-28.8 12.8c0 0-19.2 0-19.2-22.4l3.2-12.8c0 0 0-3.2-3.2-3.2s-54.4-38.4-92.8-70.4c-6.4-3.2-12.8-6.4-22.4-6.4-25.6 0-51.2 3.2-60.8 6.4-19.2 3.2-6.4 12.8 12.8 22.4 44.8 28.8 38.4 44.8 32 67.2-3.2 28.8-9.6 32-16 38.4-9.6 6.4-51.2-9.6-35.2-25.6 3.2-3.2 12.8-6.4 12.8-9.6 3.2-32-16-38.4-32-41.6-19.2-3.2-57.6 16-83.2-9.6 0-3.2-3.2-3.2-3.2-3.2 9.6 12.8 12.8 32 3.2 48-12.8 25.6-44.8 38.4-70.4 28.8s-35.2-38.4-22.4-64c9.6-16 25.6-28.8 41.6-32-9.6 0-16 0-19.2-3.2 0 0-41.6-28.8-22.4-76.8 0 0 22.4-60.8 57.6-73.6 0 0 25.6-3.2 28.8 16 0 3.2 0 9.6-6.4 12.8-16 9.6-38.4 25.6-41.6 51.2 0 3.2 0 6.4 0 9.6 0 6.4 3.2 12.8 6.4 16 0 0 6.4-44.8 51.2-64 0 0 28.8-16 54.4-19.2 0 0 3.2 0 3.2 0v0c0 0-9.6-83.2 25.6-204.8 0 0 0-3.2-3.2-6.4 0 0-25.6-9.6-19.2-25.6 3.2-12.8 16-19.2 32-16 6.4 0 16 3.2 25.6 9.6 25.6 19.2 22.4 22.4 22.4 25.6 0 0 0 0-3.2 19.2-6.4 22.4-16 86.4-16 96 0 0 0 3.2 0 3.2l3.2 108.8c0 6.4 3.2 12.8 9.6 16 28.8 25.6 124.8 105.6 204.8 147.2-9.6-9.6-3.2-6.4-3.2 6.4z" />
<glyph unicode="&#xe923;" glyph-name="display" data-tags="display, screen, monitor, computer, desktop, pc" d="M0 448v-320h512v320h-512zM480 160h-448v256h448v-256zM336 96h-160l-16-64-32-32h256l-32 32z" />
<glyph unicode="&#xe924;" glyph-name="uniE0003" data-tags="uniE000" d="M178.667 213.334c0 0 10.667-5.334 16-10.666l26.667-16c0 0 21.334-21.334 32-10.666s10.666 16 10.666 16 5.334 21.334-16 26.666h-16c0 0-32 16-37.334 32-5.333 26.666-16 85.334-16 85.334s0 0 0 0c26.666 10.666 48 37.334 48 69.334 0 37.333-32 69.333-69.334 69.333s-69.334-32-69.334-69.333c0-32 16-53.334 42.666-64 0 0 0-5.333 0-5.333s0-5.334 0-16c-5.334 0-16 0-37.334-10.667l-26.666-26.666c0 0-10.666-5.334-16-21.334s-10.666-37.334-10.666-37.334-16-10.666-10.666-26.666c0 0 0-16 26.666-16 0 0 21.334-5.334 26.666 26.666 0 0 5.334 48 21.334 53.334 0 0 10.666 0 16 5.333 0-21.333-5.334-37.333-5.334-42.666 0 0-16-21.334-5.334-42.666 0 0 0-5.334-5.334-5.334-10.666-16-21.334-48-21.334-69.334 0 0 0-5.334-5.334-5.334-10.666-10.666-58.666-53.334-58.666-85.334 0 0-5.334-5.334 10.666-21.334 0 0 21.334-10.666 26.666-21.334 0 0 37.334-10.667 42.666 26.666 0 0 0 21.334-16 21.334 0 0-10.666 5.334 0 10.666s53.334 53.334 58.666 85.334c0 0 0 0 0 0s0 5.334 0 10.666c10.666-16 21.334-32 32-53.334 0 0 5.333-64 10.666-90.666 0 0 5.333-16 32-10.666 0 0 37.334 0 42.666 21.334 5.334 16 0 26.666 0 26.666s-16 10.666-26.666 5.334h-10.666l-5.333 64c0 0-16 74.666-48 96 0 0-5.333 21.334 10.667 26.666zM280 224h138.667v-37.334h-138.667v37.334zM402.666 304l112-96-112-96z" />
<glyph unicode="&#xe925;" glyph-name="share" data-tags="share, out, external, outside" horiz-adv-x="528" d="M144 160c0 0 29.412 96 192 96v-96l192 128-192 128v-96c-128 0-192-79.836-192-160zM368 96h-288v192h62.938c5.047 5.959 10.456 11.668 16.244 17.090 21.982 20.595 48.281 36.326 78.056 46.91h-221.239v-320h416v134.312l-64-42.667v-27.645z" />
<glyph unicode="&#xe926;" glyph-name="blocked" data-tags="blocked, forbidden, denied, banned" d="M437.020 405.020c-48.353 48.351-112.64 74.98-181.020 74.98s-132.667-26.629-181.020-74.98c-48.351-48.353-74.98-112.64-74.98-181.020s26.629-132.667 74.98-181.020c48.353-48.351 112.64-74.98 181.020-74.98s132.667 26.629 181.020 74.98c48.351 48.353 74.98 112.64 74.98 181.020s-26.629 132.667-74.98 181.020zM448 224c0-41.407-13.177-79.794-35.556-111.19l-267.633 267.634c31.396 22.379 69.782 35.556 111.189 35.556 105.869 0 192-86.131 192-192zM64 224c0 41.407 13.177 79.793 35.556 111.189l267.635-267.634c-31.397-22.378-69.784-35.555-111.191-35.555-105.869 0-192 86.131-192 192z" />
<glyph unicode="&#xe927;" glyph-name="person_add" data-tags="person_add" d="M322.996 201.319c59.668 0 179.004-29.311 179.004-88.979v-45.013h-358.008v45.013c0 59.668 119.336 88.979 179.004 88.979zM122.009 291.344h66.996v-45.013h-66.996v-66.996h-45.013v66.996h-66.996v45.013h66.996v66.996h45.013v-66.996zM322.996 246.332c-49.2 0-88.979 39.779-88.979 88.979s39.779 90.025 88.979 90.025 88.979-40.825 88.979-90.025-39.779-88.979-88.979-88.979z" />
<glyph unicode="&#xe928;" glyph-name="film" data-tags="film, video, movie, tape, play" d="M0 416v-384h512v384h-512zM96 64h-64v64h64v-64zM96 192h-64v64h64v-64zM96 320h-64v64h64v-64zM384 64h-256v320h256v-320zM480 64h-64v64h64v-64zM480 192h-64v64h64v-64zM480 320h-64v64h64v-64zM192 320v-192l128 96z" />
<glyph unicode="&#xe929;" glyph-name="reply" data-tags="reply, undo, arrow, left, back, previous" d="M486.4 56.32c0 0-51.2 249.165-275.84 249.165v98.995l-184.96-165.248 184.96-171.29v111.565c121.933 0 212.275-10.803 275.84-123.187z" />
<glyph unicode="&#xf040;" glyph-name="pencil" data-tags="pencil" horiz-adv-x="433" d="M103.715 36.572l26 26-67.143 67.143-26-26v-30.572h36.572v-36.572h30.572zM253.143 301.714q0 6.286-6.286 6.286-2.857 0-4.857-2l-154.857-154.857q-2-2-2-4.857 0-6.286 6.285-6.286 2.857 0 4.857 2l154.857 154.857q2 2 2 4.857zM237.714 356.572l118.857-118.857-237.714-237.714h-118.857v118.857zM432.857 329.143q0-15.143-10.572-25.714l-47.428-47.428-118.857 118.857 47.428 47.143q10.286 10.857 25.714 10.857 15.143 0 26-10.857l67.143-66.857q10.572-11.143 10.572-26z" />
<glyph unicode="&#xf0c4;" glyph-name="cut" data-tags="cut, scissors" horiz-adv-x="510" d="M235.714 230.096q-7.428 0-12.857-5.428t-5.429-12.857 5.428-12.857 12.857-5.428 12.857 5.428 5.428 12.857-5.428 12.857-12.857 5.428zM150 211.81l-144.857-113.714q-8-5.714-7.143-16 1.429-10 10-14.572l36.572-18.286q3.715-2 8.285-2 4.857 0 8.857 2.286l197.143 110.572 31.428-18.857q2.286-1.143 3.428-1.428-4-14-2.857-27.714 2-22 16-42.143t37.714-35.286q37.714-24 79.143-24 38.857 0 63.428 22.286 25.715 24 22.572 59.143-2 21.714-16 42t-37.428 35.428q-37.714 24-79.428 24-23.714 0-43.143-8.857-2.572 3.714-6.286 6.286l-34.857 20.857 34.857 20.857q3.714 2.572 6.286 6.286 19.428-8.857 43.143-8.857 41.714 0 79.428 24 23.428 15.143 37.428 35.428t16 42q1.428 16.857-4.428 32.286t-18.143 26.571q-24.286 22.572-63.428 22.572-41.428 0-79.143-24-23.714-14.857-37.714-35.143t-16-42.286q-1.143-13.714 2.857-27.714-1.143-0.286-3.428-1.429l-31.428-18.857-197.143 110.571q-4 2.286-8.857 2.286-4.572 0-8.285-2l-36.572-18.285q-8.572-4.572-10-14.572-0.857-10.286 7.143-16zM344.571 286.096q-13.143 12-6 30.857t30.286 33.429q26.286 16.857 54.857 16.857 21.143 0 32.286-10.286 13.143-12 6-30.857t-30.286-33.428q-26.286-16.857-54.857-16.857-21.143 0-32.286 10.286zM368.856 73.239q-23.143 14.572-30.286 33.428t6 30.857q11.143 10.286 32.286 10.286 28.572 0 54.857-16.857 23.143-14.572 30.286-33.428t-6-30.857q-11.143-10.286-32.286-10.286-28.572 0-54.857 16.857zM318 248.381l-27.428-16.572v3.143q0 10.286-9.428 16l-4 2.286 22.572 13.429 7.428-7.428q0.857-0.857 2.857-3.143t3.428-3.428q0.572-0.572 1.143-1t0.857-0.714zM254 184.381l-27.428-9.143-210.286 164.571 36.572 18.286 219.428-123.143v-32.285l45.714-27.428-2.572-2.286q-0.572-0.572-2-1.714-1.143-1.143-3.143-3.428t-3.143-3.428l-7.428-7.428zM52.856 65.524l-36.572 18.286 148.571 116.572 50.572-39.428q0.571-0.857 3.714-2z" />
<glyph unicode="&#xf0d9;" glyph-name="caret-left" data-tags="caret-left" horiz-adv-x="201" d="M174.857 358.096v-256q0-7.428-5.429-12.857t-12.857-5.428-12.857 5.428l-128 128q-5.428 5.428-5.428 12.857t5.428 12.857l128 128q5.428 5.428 12.857 5.428t12.857-5.428 5.428-12.857z" />
<glyph unicode="&#xf107;" glyph-name="angle-down" data-tags="angle-down" horiz-adv-x="329" d="M307.143 265.143q0-3.714-2.857-6.572l-133.143-133.143q-2.857-2.857-6.571-2.857t-6.572 2.857l-133.143 133.143q-2.857 2.857-2.857 6.572t2.857 6.572l14.285 14.286q2.857 2.857 6.572 2.857t6.572-2.857l112.285-112.286 112.285 112.286q2.857 2.857 6.572 2.857t6.572-2.857l14.286-14.286q2.857-2.857 2.857-6.572z" />
</font>
</defs>
</svg>
